<?xml version="1.0" encoding="utf-8"?>
<!-- Generator: Adobe Illustrator 26.4.1, SVG Export Plug-In . SVG Version: 6.00 Build 0)  -->
<svg version="1.1" id="Layer_1" xmlns="http://www.w3.org/2000/svg" xmlns:xlink="http://www.w3.org/1999/xlink" x="0px" y="0px"
	 viewBox="0 0 250 250" style="enable-background:new 0 0 250 250;" xml:space="preserve">
<style type="text/css">
	.st0{fill:#FFFFFF;}
</style>
<path class="st0" d="M195.6,75.6c5.9-5.9,5.9-15.4,0-21.2s-15.4-5.9-21.2,0L125,103.8L75.6,54.4c-5.9-5.9-15.4-5.9-21.2,0
	s-5.9,15.4,0,21.2l49.4,49.3l-49.3,49.4c-5.9,5.9-5.9,15.4,0,21.2s15.4,5.9,21.2,0l49.3-49.4l49.4,49.3c5.9,5.9,15.4,5.9,21.2,0
	s5.9-15.4,0-21.2L146.2,125L195.6,75.6z"/>
</svg>
